Coordinates
version=1
nRows=19
nColumns=24
inDegrees=yes

Units are S.I. units (second, meters, Newtons, ...)
Angles are in degrees.

endheader
time	pelvis_tilt	pelvis_list	pelvis_rotation	pelvis_tx	pelvis_ty	pelvis_tz	hip_flexion_r	hip_adduction_r	hip_rotation_r	knee_angle_r	ankle_angle_r	subtalar_angle_r	mtp_angle_r	hip_flexion_l	hip_adduction_l	hip_rotation_l	knee_angle_l	ankle_angle_l	subtalar_angle_l	mtp_angle_l	lumbar_extension	lumbar_bending	lumbar_rotation
      4.16500000	     -8.49392511	      2.78292844	    -13.81910575	     -2.27054952	     -0.02493859	      0.54044007	     -6.96312898	     -2.41363966	      5.98678171	    -13.34992585	      3.51391705	      7.39427163	      8.88106389	     29.42300765	     -2.40911260	     -3.68925489	     -4.77596574	     -5.96927873	      2.98688888	     13.34921137	      5.66925685	     -0.01600609	     13.00146851
      4.17000000	     -8.50985694	      2.85616817	    -13.90891876	     -2.26291739	     -0.02585614	      0.54003631	     -7.04264881	     -2.69455232	      5.84619749	    -13.99936499	      3.27442117	      8.02375257	      9.70664061	     29.53464480	     -2.26927449	     -3.43457700	     -5.64731984	     -5.84520494	      3.18852913	     13.41758920	      5.87456146	     -0.08789437	     12.94683402
      4.17500000	     -8.51769531	      2.92897967	    -13.96365802	     -2.25518738	     -0.02674243	      0.53961967	     -7.15597267	     -2.95920695	      5.89856566	    -14.63491211	      2.92144752	      8.44081054	     10.25946300	     29.63226564	     -2.10057566	     -3.18155120	     -6.57041332	     -5.86690326	      3.30610675	     13.51687918	      6.08140879	     -0.17093800	     12.89287389
      4.18000000	     -8.54036387	      3.02268914	    -13.99137619	     -2.24736659	     -0.02763812	      0.53913563	     -7.20045381	     -3.24163554	      5.86241731	    -15.36336838	      2.51711448	      8.86134018	     10.84726177	     29.74318652	     -1.89025318	     -3.01762172	     -7.51695360	     -6.00646230	      3.39272868	     13.65473301	      6.31659847	     -0.27406242	     12.81344123
      4.18500000	     -8.57534304	      3.12099830	    -13.99042852	     -2.23947751	     -0.02850997	      0.53860344	     -7.20088278	     -3.52545973	      5.78550957	    -16.14400586	      2.03656342	      9.30461433	     11.45799452	     29.85697772	     -1.65971069	     -2.91652629	     -8.46059002	     -6.30130250	      3.45480338	     13.80176838	      6.57243195	     -0.38632447	     12.74030945
      4.19000000	     -8.62952244	      3.24383826	    -13.95919695	     -2.23152659	     -0.02936176	      0.53799999	     -7.13999085	     -3.83258941	      5.65614488	    -16.98154204	      1.48749930	      9.77317990	     12.12875964	     29.98202812	     -1.39262801	     -2.88600311	     -9.37297191	     -6.76644391	      3.48284629	     13.93987857	      6.85993158	     -0.52291681	     12.65863745
      4.19500000	     -8.69550206	      3.38028507	    -13.91184309	     -2.22360962	     -0.03017475	      0.53733187	     -6.99776563	     -4.15197139	      5.48625658	    -17.91432096	      0.86608825	     10.25288365	     12.92446382	     30.10836555	     -1.10841843	     -2.88501403	    -10.23295057	     -7.41600297	      3.42840309	     14.05249741	      7.15296895	     -0.67116635	     12.54421664
      4.20000000	     -8.76683848	      3.56090436	    -13.81222561	     -2.21561770	     -0.03088985	      0.53660791	     -6.82264344	     -4.51114618	      5.26688740	    -18.87258664	      0.11229438	     10.70755402	     13.66822813	     30.24428631	     -0.76210653	     -2.99996179	    -11.04795426	     -8.24608692	      3.33502590	     14.07559934	      7.46989985	     -0.87757566	     12.46725057
      4.20500000	     -8.85692092	      3.70248182	    -13.71422254	     -2.20779986	     -0.03153261	      0.53576177	     -6.53851871	     -4.83888729	      5.00087830	    -19.93302910	     -0.76688726	     11.22948296	     14.79624309	     30.37836306	     -0.44943667	     -2.98109575	    -11.78676290	     -9.26123560	      2.96007486	     14.03653643	      7.76461965	     -1.03065619	     12.31703800
      4.21000000	     -8.92716374	      3.91245307	    -13.56257659	     -2.19989175	     -0.03203682	      0.53492370	     -6.24053744	     -5.22609480	      4.68548223	    -21.01342025	     -1.86460637	     11.53404907	     15.92405451	     30.48580240	     -0.04531773	     -2.95480926	    -12.47188354	    -10.32809344	      2.51044984	     13.88716222	      8.06706679	     -1.27880311	     12.20266358
      4.21500000	     -9.01109593	      4.16654259	    -13.44575966	     -2.19204229	     -0.03245253	      0.53406599	     -5.83532643	     -5.66667713	      4.42988952	    -22.20712400	     -2.99659921	     12.00109180	     16.93679536	     30.63613118	      0.38126747	     -3.04100500	    -13.19521551	    -11.28276045	      2.02139995	     13.48112658	      8.38365522	     -1.55739672	     12.11399589
      4.22000000	     -9.09215462	      4.41551394	    -13.28103029	     -2.18422483	     -0.03277625	      0.53313130	     -5.38597593	     -6.09277027	      4.13216848	    -23.44019799	     -4.36056505	     12.28165979	     18.12475236	     30.79057064	      0.84549612	     -2.93028500	    -13.95164803	    -12.11446963	      1.33081180	     12.83444920	      8.68563245	     -1.83817022	     12.00966528
      4.22500000	     -9.16122653	      4.66601120	    -13.11483451	     -2.17646090	     -0.03299199	      0.53222469	     -4.88962606	     -6.51008960	      3.88601914	    -24.72757639	     -5.91540759	     12.45148508	     19.38689319	     30.94559136	      1.32420495	     -2.74515131	    -14.77007315	    -12.72044483	      0.58716202	     11.98048738	      8.95987536	     -2.13456743	     11.92723657
      4.23000000	     -9.18260465	      4.88338983	    -12.90514096	     -2.16874253	     -0.03312005	      0.53130403	     -4.41692284	     -6.88422060	      3.63071701	    -26.01535607	     -7.71401762	     12.34984772	     20.98050677	     31.07960694	      1.81191028	     -2.50135026	    -15.71298968	    -12.89050643	     -0.01841696	     10.91495532	      9.16057987	     -2.41937374	     11.77799055
      4.23500000	     -9.24296031	      5.11707559	    -12.80690209	     -2.16108172	     -0.03322353	      0.53046619	     -3.78165723	     -7.25718706	      3.56824240	    -27.47329893	     -9.54641500	     12.34392541	     22.00218429	     31.22882286	      2.27903756	     -2.21155955	    -16.65231623	    -12.95213877	     -0.88827366	      9.84787566	      9.40169813	     -2.68272595	     11.81396362
      4.24000000	     -9.27378829	      5.30677357	    -12.62979196	     -2.15358876	     -0.03331576	      0.52958316	     -3.13683858	     -7.56387399	      3.44821632	    -28.96614010	    -11.54611990	     12.05442703	     23.39023241	     31.38497976	      2.75226337	     -1.87026413	    -17.72044670	    -12.60750701	     -1.47128302	      8.63687510	      9.55814888	     -2.93387969	     11.74066136
      4.24500000	     -9.28652933	      5.50321276	    -12.51180229	     -2.14595034	     -0.03331106	      0.52885362	     -2.47225450	     -7.84808829	      3.48783241	    -30.49865647	    -13.70272074	     11.64748476	     24.31753915	     31.44833154	      3.21337234	     -1.56605468	    -18.70373579	    -12.09880145	     -2.04372760	      7.67976482	      9.72690857	     -3.18544647	     11.75768218
      4.25000000	     -9.29155590	      5.67463648	    -12.37863410	     -2.13857674	     -0.03335637	      0.52812880	     -1.72011363	     -8.08605070	      3.49954933	    -32.15983743	    -15.86042005	     11.06101539	     25.29201606	     31.51725654	      3.65303850	     -1.28417607	    -19.72850667	    -11.36375903	     -2.38443431	      6.77797053	      9.82930187	     -3.42351637	     11.76038152
      4.25500000	     -9.26679274	      5.86468810	    -12.25657620	     -2.13136875	     -0.03340114	      0.52749149	     -0.90887408	     -8.32079160	      3.53711725	    -33.94620123	    -17.97513518	     10.30341792	     26.02349348	     31.52697974	      4.09452898	     -1.07342170	    -20.69214940	    -10.50299874	     -2.51503334	      6.10237072	      9.87230609	     -3.69314489	     11.78979617
